<svg width="16" height="17" viewBox="0 0 16 17" fill="none" xmlns="http://www.w3.org/2000/svg">
<path d="M0 2.54462C0 1.86974 0.252856 1.22251 0.702944 0.745302C1.15303 0.268093 1.76348 0 2.4 0H13.6C14.2365 0 14.847 0.268093 15.2971 0.745302C15.7471 1.22251 16 1.86974 16 2.54462V14.4195C16 15.0944 15.7471 15.7416 15.2971 16.2188C14.847 16.696 14.2365 16.9641 13.6 16.9641H2.4C1.76348 16.9641 1.15303 16.696 0.702944 16.2188C0.252856 15.7416 0 15.0944 0 14.4195V2.54462ZM12.5664 6.53797C12.7166 6.3787 12.801 6.16269 12.801 5.93744C12.801 5.7122 12.7166 5.49618 12.5664 5.33691C12.4162 5.17764 12.2124 5.08817 12 5.08817C11.7876 5.08817 11.5838 5.17764 11.4336 5.33691L6.4 10.6755L4.5664 8.72974C4.41618 8.57047 4.21244 8.48099 4 8.48099C3.78756 8.48099 3.58382 8.57047 3.4336 8.72974C3.28338 8.88901 3.19899 9.10503 3.19899 9.33027C3.19899 9.55551 3.28338 9.77153 3.4336 9.9308L5.8336 12.4754C5.90791 12.5544 5.99619 12.6171 6.09339 12.6598C6.19058 12.7026 6.29477 12.7246 6.4 12.7246C6.50523 12.7246 6.60942 12.7026 6.70661 12.6598C6.80381 12.6171 6.89209 12.5544 6.9664 12.4754L12.5664 6.53797Z" fill="#4ECB71"/>
</svg>
