<svg width="209" height="273" viewBox="0 0 209 273" fill="none" xmlns="http://www.w3.org/2000/svg">
<path d="M46.3711 252.041C46.3711 252.041 62.4714 242.36 62.4839 242.356C64.7872 241.048 67.7119 240.88 70.1358 242.356L86.0551 252.041V229.53H46.3718V252.041H46.3711Z" fill="#28D7AD"/>
<path d="M201.461 38.7424C196.732 38.7424 192.886 34.8995 192.886 30.1767V23.6281C192.886 18.9055 196.732 15.0626 201.461 15.0626C205.624 15.0626 209 11.6905 209 7.53132C209 3.37214 205.624 0 201.461 0C201.46 0 201.46 0 201.46 0H201.459H24.7265C11.0923 0 0 11.0798 0 24.6995V204.831C0 218.449 11.0916 229.53 24.7265 229.53H31.2926V265.448C31.2926 268.171 32.7642 270.68 35.1395 272.014C36.2875 272.658 37.5611 272.979 38.8321 272.979C40.1923 272.979 41.5512 272.611 42.7543 271.879L66.1954 257.595L89.6718 271.879C90.8748 272.611 92.2337 272.979 93.5939 272.979C94.8651 272.979 96.1385 272.658 97.2865 272.014C99.6627 270.68 101.133 268.171 101.133 265.448V229.53H201.459C205.623 229.53 208.998 226.158 208.998 222V46.2863C208.998 46.2811 208.999 46.2775 208.999 46.2736C209 42.115 205.624 38.7424 201.461 38.7424ZM15.0787 24.6995C15.0787 19.3862 19.4069 15.0626 24.7265 15.0626H179.422C178.383 17.7199 177.807 20.6082 177.807 23.6281V30.1767C177.807 33.1973 178.383 36.085 179.422 38.7424H164.72H15.0787V24.6995ZM86.0547 252.041L70.1354 242.356C67.7121 240.88 64.7868 241.048 62.4835 242.356C62.471 242.36 46.3707 252.041 46.3707 252.041V229.53H86.054V252.041H86.0547ZM193.92 214.468H24.7265C19.4069 214.468 15.0793 210.145 15.0793 204.832V63.4425V53.8051H164.72H193.921V214.468H193.92Z" fill="#231F20"/>
<path d="M136.825 92.1249L146.497 101.786L160.037 88.2604L150.365 78.5993L136.825 92.1249Z" fill="#D1D5D8"/>
<path d="M72.9941 157.823L80.7312 165.552L93.3041 152.992L85.5668 145.263L72.9941 157.823Z" fill="#29F1C1"/>
<path d="M77.8299 137.535L101.041 160.722L153.267 108.552L130.055 85.3654L77.8299 137.535Z" fill="#EFEFEF"/>
<path d="M168.742 93.0926L145.53 69.9052C144.462 68.8383 142.729 68.8381 141.661 69.9052C140.593 70.9723 140.593 72.7026 141.661 73.7699L146.497 78.6004L136.825 88.2617L124.639 76.0886C123.57 75.0217 121.839 75.0217 120.77 76.0886C119.702 77.1557 119.702 78.886 120.77 79.9531L126.186 85.3635L75.8941 135.602C75.3811 136.115 75.0927 136.81 75.0927 137.534C75.0927 138.259 75.3811 138.954 75.8941 139.467L81.6969 145.263L71.0581 155.891C69.9898 156.958 69.9898 158.688 71.0581 159.755L72.9924 161.688L48.4291 186.225C47.3609 187.292 47.3609 189.022 48.4291 190.089C48.9632 190.623 49.6633 190.89 50.3634 190.89C51.0633 190.89 51.7636 190.623 52.2975 190.089L76.8608 165.552L78.7952 167.484C79.3293 168.018 80.0294 168.285 80.7293 168.285C81.4294 168.285 82.1297 168.018 82.6636 167.484L93.3024 156.857L99.1054 162.654C99.6395 163.187 100.34 163.454 101.04 163.454C101.74 163.454 102.44 163.187 102.974 162.654L153.266 112.415L158.682 117.825C159.217 118.359 159.917 118.625 160.617 118.625C161.317 118.625 162.017 118.358 162.551 117.825C163.619 116.758 163.619 115.028 162.551 113.961L150.365 101.788L160.036 92.1264L164.872 96.9571C165.406 97.4906 166.106 97.7574 166.806 97.7574C167.506 97.7574 168.206 97.4904 168.74 96.9571C169.81 95.89 169.81 94.1596 168.742 93.0926ZM89.4346 152.992L80.7301 161.687L76.8615 157.823L85.5659 149.128L89.4346 152.992ZM144.562 113.381L137.728 106.554C136.659 105.487 134.927 105.487 133.859 106.554C132.79 107.621 132.79 109.351 133.859 110.418L140.693 117.245L135.858 122.076L129.023 115.249C127.955 114.182 126.223 114.182 125.154 115.249C124.086 116.316 124.086 118.046 125.154 119.113L131.989 125.94L127.153 130.771L120.319 123.944C119.25 122.877 117.519 122.877 116.45 123.944C115.382 125.011 115.382 126.741 116.45 127.808L123.285 134.636L118.449 139.466L111.615 132.639C110.546 131.572 108.814 131.572 107.746 132.639C106.678 133.706 106.678 135.436 107.746 136.503L114.58 143.331L109.745 148.161L102.91 141.334C101.842 140.267 100.11 140.267 99.0415 141.334C97.9733 142.401 97.9733 144.132 99.0415 145.199L105.876 152.026L101.041 156.856L81.6971 137.534L130.055 89.2278L149.398 108.55L144.562 113.381ZM146.497 97.923L140.694 92.1264L150.365 82.4653L156.168 88.2619L146.497 97.923Z" fill="#231F20"/>
<path d="M40.4277 194.218L40.1542 194.491C39.086 195.558 39.086 197.288 40.1542 198.356C40.6886 198.889 41.3887 199.156 42.0886 199.156C42.7887 199.156 43.489 198.889 44.0229 198.356L44.2966 198.082C45.3648 197.015 45.3648 195.285 44.2966 194.218C43.2282 193.15 41.496 193.15 40.4277 194.218Z" fill="#231F20"/>
</svg>
