<svg width="24" height="22" viewBox="0 0 24 22" fill="none" xmlns="http://www.w3.org/2000/svg">
<path d="M17.2083 0C18.2139 0 19.1784 0.370944 19.8894 1.03123C20.6005 1.69151 21 2.58705 21 3.52083V9.77383C20.4546 9.44914 19.8664 9.19099 19.25 9.00575V5.95833H1.75V15.9792C1.75 17.0257 2.66467 17.875 3.79167 17.875H9.6985C9.90033 18.4535 10.1792 18.9984 10.5257 19.5H3.79167C2.78605 19.5 1.82163 19.1291 1.11055 18.4688C0.399478 17.8085 0 16.913 0 15.9792V3.52083C0 2.58705 0.399478 1.69151 1.11055 1.03123C1.82163 0.370944 2.78605 0 3.79167 0H17.2083ZM17.2083 1.625H3.79167C3.25018 1.625 2.73088 1.82474 2.34799 2.18028C1.9651 2.53581 1.75 3.01803 1.75 3.52083V4.33333H19.25V3.52083C19.25 3.01803 19.0349 2.53581 18.652 2.18028C18.2691 1.82474 17.7498 1.625 17.2083 1.625Z" fill="#CCCCCC"/>
<path d="M23.3333 15.7083C23.3333 17.2886 22.6573 18.8041 21.4539 19.9215C20.2506 21.0389 18.6185 21.6667 16.9167 21.6667C15.2149 21.6667 13.5828 21.0389 12.3794 19.9215C11.176 18.8041 10.5 17.2886 10.5 15.7083C10.5 14.1281 11.176 12.6126 12.3794 11.4952C13.5828 10.3778 15.2149 9.75 16.9167 9.75C18.6185 9.75 20.2506 10.3778 21.4539 11.4952C22.6573 12.6126 23.3333 14.1281 23.3333 15.7083ZM16.9167 11.9167C16.762 11.9167 16.6136 11.9737 16.5042 12.0753C16.3948 12.1769 16.3333 12.3147 16.3333 12.4583V16.7917C16.3333 16.9353 16.3948 17.0731 16.5042 17.1747C16.6136 17.2763 16.762 17.3333 16.9167 17.3333C17.0714 17.3333 17.2197 17.2763 17.3291 17.1747C17.4385 17.0731 17.5 16.9353 17.5 16.7917V12.4583C17.5 12.3147 17.4385 12.1769 17.3291 12.0753C17.2197 11.9737 17.0714 11.9167 16.9167 11.9167ZM16.9167 19.6354C17.1101 19.6354 17.2955 19.5641 17.4323 19.4371C17.569 19.3101 17.6458 19.1379 17.6458 18.9583C17.6458 18.7788 17.569 18.6065 17.4323 18.4796C17.2955 18.3526 17.1101 18.2812 16.9167 18.2812C16.7233 18.2812 16.5378 18.3526 16.4011 18.4796C16.2643 18.6065 16.1875 18.7788 16.1875 18.9583C16.1875 19.1379 16.2643 19.3101 16.4011 19.4371C16.5378 19.5641 16.7233 19.6354 16.9167 19.6354Z" fill="#CCCCCC"/>
</svg>
