<svg width="17" height="17" viewBox="0 0 17 17" fill="none" xmlns="http://www.w3.org/2000/svg">
<path d="M2.125 0C1.59457 0 1.08586 0.223411 0.710786 0.621085C0.335714 1.01876 0.125 1.55812 0.125 2.12052L0.125 14.8436C0.125 15.406 0.335714 15.9454 0.710786 16.343C1.08586 16.7407 1.59457 16.9641 2.125 16.9641H14.125C14.6554 16.9641 15.1641 16.7407 15.5392 16.343C15.9143 15.9454 16.125 15.406 16.125 14.8436V2.12052C16.125 1.55812 15.9143 1.01876 15.5392 0.621085C15.1641 0.223411 14.6554 0 14.125 0L2.125 0ZM5.479 4.92596L8.125 7.73246L10.771 4.92596C10.8175 4.87667 10.8727 4.83757 10.9334 4.8109C10.9942 4.78422 11.0593 4.77049 11.125 4.77049C11.1907 4.77049 11.2558 4.78422 11.3166 4.8109C11.3773 4.83757 11.4325 4.87667 11.479 4.92596C11.5255 4.97525 11.5624 5.03376 11.5875 5.09816C11.6127 5.16256 11.6256 5.23158 11.6256 5.30129C11.6256 5.371 11.6127 5.44002 11.5875 5.50442C11.5624 5.56882 11.5255 5.62733 11.479 5.67662L8.832 8.48206L11.479 11.2875C11.5255 11.3368 11.5624 11.3953 11.5875 11.4597C11.6127 11.5241 11.6256 11.5931 11.6256 11.6628C11.6256 11.7325 11.6127 11.8016 11.5875 11.866C11.5624 11.9304 11.5255 11.9889 11.479 12.0382C11.4325 12.0875 11.3773 12.1266 11.3166 12.1532C11.2558 12.1799 11.1907 12.1936 11.125 12.1936C11.0593 12.1936 10.9942 12.1799 10.9334 12.1532C10.8727 12.1266 10.8175 12.0875 10.771 12.0382L8.125 9.23167L5.479 12.0382C5.43251 12.0875 5.37732 12.1266 5.31658 12.1532C5.25584 12.1799 5.19074 12.1936 5.125 12.1936C5.05926 12.1936 4.99416 12.1799 4.93342 12.1532C4.87268 12.1266 4.81749 12.0875 4.771 12.0382C4.72451 11.9889 4.68764 11.9304 4.66248 11.866C4.63732 11.8016 4.62437 11.7325 4.62437 11.6628C4.62437 11.5931 4.63732 11.5241 4.66248 11.4597C4.68764 11.3953 4.72451 11.3368 4.771 11.2875L7.418 8.48206L4.771 5.67662C4.67711 5.57708 4.62437 5.44207 4.62437 5.30129C4.62437 5.16051 4.67711 5.0255 4.771 4.92596C4.86489 4.82641 4.99222 4.77049 5.125 4.77049C5.25778 4.77049 5.38511 4.82641 5.479 4.92596Z" fill="#F11010"/>
</svg>
