<svg width="20" height="21" viewBox="0 0 20 21" fill="none" xmlns="http://www.w3.org/2000/svg">
<path d="M11.8762 20.6139H8.12446C7.88939 20.6139 7.66137 20.5336 7.47821 20.3862C7.29506 20.2389 7.16777 20.0334 7.11747 19.8037L6.69798 17.8619C6.13837 17.6167 5.60775 17.3101 5.11586 16.9477L3.22248 17.5506C2.99837 17.6221 2.75656 17.6148 2.5372 17.5298C2.31783 17.4449 2.13412 17.2875 2.01657 17.0837L0.136589 13.836C0.02027 13.6321 -0.0233931 13.3947 0.0127429 13.1627C0.0488788 12.9307 0.162674 12.7179 0.335512 12.559L1.80425 11.2191C1.73746 10.6121 1.73746 9.99967 1.80425 9.3927L0.335512 8.05589C0.162429 7.89693 0.0484793 7.68389 0.0123374 7.45169C-0.0238044 7.21948 0.0200061 6.98188 0.136589 6.77784L2.01245 3.52806C2.13 3.32431 2.31371 3.1669 2.53307 3.08196C2.75243 2.99703 2.99425 2.98969 3.21836 3.06116L5.11174 3.66411C5.36323 3.47859 5.62503 3.30543 5.89507 3.14877C6.15583 3.00241 6.42381 2.86945 6.69798 2.75092L7.1185 0.811155C7.16856 0.581514 7.29561 0.375881 7.47857 0.228349C7.66153 0.0808165 7.88942 0.000247331 8.12446 0H11.8762C12.1112 0.000247331 12.3391 0.0808165 12.5221 0.228349C12.705 0.375881 12.8321 0.581514 12.8821 0.811155L13.3068 2.75195C13.5954 2.87976 13.8778 3.02302 14.1509 3.18278C14.4055 3.33017 14.6518 3.49199 14.8889 3.66617L16.7833 3.06322C17.0073 2.99201 17.2489 2.99949 17.468 3.08441C17.6871 3.16933 17.8707 3.32659 17.9882 3.53012L19.864 6.7799C20.1032 7.19939 20.0207 7.7302 19.6651 8.05693L18.1964 9.39683C18.2632 10.0038 18.2632 10.6163 18.1964 11.2232L19.6651 12.5631C20.0207 12.8909 20.1032 13.4207 19.864 13.8401L17.9882 17.0899C17.8706 17.2937 17.6869 17.4511 17.4676 17.536C17.2482 17.6209 17.0064 17.6283 16.7823 17.5568L14.8889 16.9539C14.3974 17.316 13.8671 17.6223 13.3078 17.8671L12.8821 19.8037C12.8319 20.0332 12.7047 20.2386 12.5218 20.3859C12.3388 20.5332 12.1111 20.6137 11.8762 20.6139ZM9.99619 6.18416C8.90277 6.18416 7.85412 6.61852 7.08095 7.39169C6.30779 8.16486 5.87342 9.2135 5.87342 10.3069C5.87342 11.4004 6.30779 12.449 7.08095 13.2222C7.85412 13.9953 8.90277 14.4297 9.99619 14.4297C11.0896 14.4297 12.1383 13.9953 12.9114 13.2222C13.6846 12.449 14.119 11.4004 14.119 10.3069C14.119 9.2135 13.6846 8.16486 12.9114 7.39169C12.1383 6.61852 11.0896 6.18416 9.99619 6.18416Z" fill="#CCCCCC"/>
</svg>
